<svg width="1434" height="640" viewBox="0 0 1434 640" fill="none" xmlns="http://www.w3.org/2000/svg">
<path d="M856.783 13.1458H850.143V3.14299C850.143 1.40614 851.551 0 853.286 0H853.64C855.377 0 856.783 1.40833 856.783 3.14299V13.1458Z" fill="#9F9F9F"/>
<path d="M941.194 13.1458H934.554V3.14299C934.554 1.40614 935.96 0 937.697 0H938.051C939.788 0 941.194 1.40833 941.194 3.14299V13.1458Z" fill="#9F9F9F"/>
<path d="M111.507 252.714H105.416V243.54C105.416 241.947 106.706 240.657 108.298 240.657H108.622C110.215 240.657 111.505 241.947 111.505 243.54L111.507 252.714Z" fill="#9F9F9F"/>
<path d="M178.764 252.172H172.673V242.998C172.673 241.405 173.963 240.115 175.555 240.115H175.879C177.472 240.115 178.762 241.405 178.762 242.998V252.172H178.764Z" fill="#9F9F9F"/>
<path d="M994.869 109.854H994.321V508.667H994.869V109.854Z" fill="#9F9F9F"/>
<path d="M1019.2 147.803H1018.65V508.667H1019.2V147.803Z" fill="#9F9F9F"/>
<path d="M1043.53 183.564H1042.99V508.669H1043.53V183.564Z" fill="#9F9F9F"/>
<path d="M1067.86 217.085H1067.32V508.666H1067.86V217.085Z" fill="#9F9F9F"/>
<path d="M1092.2 251.862H1091.65V508.667H1092.2V251.862Z" fill="#9F9F9F"/>
<path d="M1116.53 279.822H1115.99V508.666H1116.53V279.822Z" fill="#9F9F9F"/>
<path d="M1140.86 308.292H1140.32V508.665H1140.86V308.292Z" fill="#9F9F9F"/>
<path d="M1165.2 334.604H1164.65V508.666H1165.2V334.604Z" fill="#9F9F9F"/>
<path d="M1189.53 359.721H1188.98V508.667H1189.53V359.721Z" fill="#9F9F9F"/>
<path d="M1213.86 382.606H1213.31V508.667H1213.86V382.606Z" fill="#9F9F9F"/>
<path d="M1238.2 403.395H1237.65V508.668H1238.2V403.395Z" fill="#9F9F9F"/>
<path d="M1262.53 421.635H1261.98V508.666H1262.53V421.635Z" fill="#9F9F9F"/>
<path d="M1286.86 439.158H1286.31V508.665H1286.86V439.158Z" fill="#9F9F9F"/>
<path d="M1311.2 452.648H1310.65V508.666H1311.2V452.648Z" fill="#9F9F9F"/>
<path d="M1335.53 465.15H1334.98V508.666H1335.53V465.15Z" fill="#9F9F9F"/>
<path d="M1359.86 475.805H1359.31V508.667H1359.86V475.805Z" fill="#9F9F9F"/>
<path d="M1384.19 485.076H1383.64V508.667H1384.19V485.076Z" fill="#9F9F9F"/>
<path d="M5.73746 636.41L4.34668 635.534C66.7113 536.649 101.593 351.222 112.371 257.248L114.003 257.436C103.209 351.548 68.2575 537.273 5.73746 636.41Z" fill="#9F9F9F"/>
<path d="M60.9411 623.354L59.5503 622.478C118.452 529.08 163.323 364.596 175.637 257.248L177.269 257.436C164.935 364.964 119.972 529.752 60.9411 623.354Z" fill="#9F9F9F"/>
<path d="M171.448 530.968C171.169 529.365 170.173 528.318 168.521 527.781C170.217 528.384 171.448 530.066 171.448 532.068V530.968Z" fill="#D7D7D7"/>
<path d="M99.498 327.229H99.4937V408.356H99.498V327.229Z" fill="#D7D7D7"/>
<path d="M105.222 327.228V408.378H103.862V502.144H99.7666V746.207H110.77V736.892H104.852V729.389H109.093V725.766C109.093 725.766 109.697 725.374 110.77 724.682V693.484C105.444 689.798 101.887 687.295 101.742 687.084L104.854 686.149V680.608H109.095V679.559C109.095 679.559 109.699 679.167 110.773 678.475V647.277C105.446 643.591 101.889 641.087 101.744 640.877L112.22 637.73L124.459 645.937H161.349C165.699 643.164 169.245 640.921 171.437 639.567V631.531C171.385 633.989 169.499 635.967 167.171 635.967H115.05C112.689 635.967 110.775 633.934 110.775 631.426V532.064C110.775 529.557 112.689 527.524 115.05 527.524H167.171C167.449 527.524 167.721 527.557 167.983 527.612C167.883 527.588 167.808 527.546 167.703 527.524H177.658V594.346H171.448V597.064H177.474V680.604H178.359V688.107H177.474V729.382H178.359V736.886H177.474V746.201H188.977L191.951 746.07V502.144C191.951 502.144 188.532 501.844 188.25 502.144C187.969 502.444 188.25 408.358 188.25 408.358H184.248V327.232H180.667V252.173H170.555V257.342H147.533H136.214H113.193V252.173H106.477V327.23L105.222 327.228ZM134.769 522.714V512.09C134.769 511.395 135.332 510.832 136.026 510.832H137.057C137.752 510.832 138.315 511.395 138.315 512.09V522.714C138.315 523.409 137.752 523.972 137.057 523.972H136.026C135.332 523.972 134.769 523.409 134.769 522.714ZM140.785 522.714V512.09C140.785 511.395 141.348 510.832 142.042 510.832H143.072C143.766 510.832 144.329 511.395 144.329 512.09V522.714C144.329 523.409 143.766 523.972 143.072 523.972H142.042C141.348 523.972 140.785 523.409 140.785 522.714ZM146.802 522.714V512.09C146.802 511.395 147.365 510.832 148.059 510.832H149.091C149.785 510.832 150.348 511.395 150.348 512.09V522.714C150.348 523.409 149.785 523.972 149.091 523.972H148.059C147.365 523.972 146.802 523.409 146.802 522.714ZM152.818 522.714V512.09C152.818 511.395 153.381 510.832 154.076 510.832H155.107C155.801 510.832 156.364 511.395 156.364 512.09V522.714C156.364 523.409 155.801 523.972 155.107 523.972H154.076C153.381 523.972 152.818 523.409 152.818 522.714ZM114.838 276.057C114.838 273.549 116.752 271.519 119.113 271.519H166.017H167.169C169.53 271.519 171.444 273.552 171.444 276.057V321.761C171.444 322.67 171.186 323.511 170.754 324.22C171.216 323.495 171.488 322.622 171.488 321.68V275.976C171.488 273.749 169.974 271.905 167.983 271.519H174.265V326.301H167.171H166.019H119.115C116.754 326.301 114.84 324.269 114.84 321.763V276.057H114.838ZM110.773 343.788C110.773 341.28 112.687 339.248 115.048 339.248H167.171C169.532 339.248 171.446 341.28 171.446 343.788V403.84C171.446 404.746 171.188 405.587 170.756 406.297C171.218 405.572 171.488 404.698 171.488 403.756V343.705C171.488 341.477 169.974 339.633 167.981 339.248H175.415V408.378H167.171H115.05C112.689 408.378 110.775 406.345 110.775 403.84L110.773 343.788ZM134.769 419.817V413.954C134.769 413.26 135.332 412.697 136.026 412.697H137.057C137.752 412.697 138.315 413.26 138.315 413.954V419.817C138.315 420.512 137.752 421.075 137.057 421.075H136.026C135.332 421.075 134.769 420.512 134.769 419.817ZM140.785 419.817V413.954C140.785 413.26 141.348 412.697 142.042 412.697H143.072C143.766 412.697 144.329 413.26 144.329 413.954V419.817C144.329 420.512 143.766 421.075 143.072 421.075H142.042C141.348 421.075 140.785 420.512 140.785 419.817ZM146.802 419.817V413.954C146.802 413.26 147.365 412.697 148.059 412.697H149.091C149.785 412.697 150.348 413.26 150.348 413.954V419.817C150.348 420.512 149.785 421.075 149.091 421.075H148.059C147.365 421.075 146.802 420.512 146.802 419.817ZM156.364 419.817C156.364 420.512 155.801 421.075 155.107 421.075H154.076C153.381 421.075 152.818 420.512 152.818 419.817V413.954C152.818 413.26 153.381 412.697 154.076 412.697H155.107C155.801 412.697 156.364 413.26 156.364 413.954V419.817ZM110.773 430.703C110.773 428.195 112.687 426.165 115.048 426.165H167.171C169.532 426.165 171.446 428.197 171.446 430.703V500.558C171.446 501.465 171.19 502.306 170.756 503.015C171.218 502.29 171.488 501.417 171.488 500.475V430.62C171.488 428.112 169.574 426.079 167.213 426.079H167.169V425.681H175.415V505.096H167.171H115.05C112.689 505.096 110.775 503.064 110.775 500.558L110.773 430.703Z" fill="#D7D7D7"/>
<path d="M150.607 663.474L171.436 649.818V639.57C169.244 640.924 165.698 643.167 161.348 645.939C155.894 649.415 149.225 653.693 142.483 658.027L150.607 663.474Z" fill="#D7D7D7"/>
<path d="M134.203 663.357C136.948 665.232 139.683 667.1 142.327 668.903C149.149 673.557 155.339 677.771 159.511 680.61H171.437V677.443L150.608 663.473L142.485 658.026L124.459 645.938L112.22 637.731L101.744 640.879C101.889 641.089 105.446 643.593 110.772 647.279C116.99 651.58 125.629 657.498 134.203 663.357Z" fill="#D7D7D7"/>
<path d="M99.7705 502.146H95.493C95.493 502.146 95.4339 502.146 95.3309 502.146H91.7915V746.209H99.7705V502.146Z" fill="#D7D7D7"/>
<path opacity="0.3" d="M99.7705 502.146H95.493C95.493 502.146 95.4339 502.146 95.3309 502.146H91.7915V746.209H99.7705V502.146Z" fill="black"/>
<path opacity="0.3" d="M167.982 527.617C168.175 527.663 168.344 527.727 168.519 527.784C168.344 527.72 168.169 527.654 167.982 527.617Z" fill="black"/>
<path d="M171.448 530.967V532.066V594.35H177.658V527.528H167.703C167.808 527.548 167.883 527.592 167.983 527.616C168.17 527.653 168.345 527.719 168.52 527.782C170.174 528.319 171.17 529.364 171.448 530.967Z" fill="#D7D7D7"/>
<path opacity="0.3" d="M171.448 530.967V532.066V594.35H177.658V527.528H167.703C167.808 527.548 167.883 527.592 167.983 527.616C168.17 527.653 168.345 527.719 168.52 527.782C170.174 528.319 171.17 529.364 171.448 530.967Z" fill="black"/>
<path opacity="0.3" d="M171.447 597.068H171.437V631.534C171.437 631.499 171.447 631.466 171.447 631.429V597.068Z" fill="black"/>
<path d="M177.472 729.387V688.112V680.608V597.068H171.446V631.431C171.446 631.466 171.438 631.499 171.436 631.536V639.572V649.82L171.446 649.813V677.45L171.436 677.443V680.61V688.114V696.025L171.446 696.019V723.655L171.436 723.648V728.519L171.446 728.517V729.389H171.436V736.893H171.446V746.208H177.472V736.893V729.387Z" fill="#D7D7D7"/>
<path opacity="0.3" d="M177.472 729.387V688.112V680.608V597.068H171.446V631.431C171.446 631.466 171.438 631.499 171.436 631.536V639.572V649.82L171.446 649.813V677.45L171.436 677.443V680.61V688.114V696.025L171.446 696.019V723.655L171.436 723.648V728.519L171.446 728.517V729.389H171.436V736.893H171.446V746.208H177.472V736.893V729.387Z" fill="black"/>
<path opacity="0.3" d="M95.4883 408.356V502.142C95.8321 502.385 95.4883 408.356 95.4883 408.356Z" fill="black"/>
<path d="M103.862 502.144V408.378H99.4964V408.358H99.492H95.4883C95.4883 408.358 95.83 502.385 95.4883 502.144H99.7658H103.862Z" fill="#D7D7D7"/>
<path opacity="0.3" d="M103.862 502.144V408.378H99.4964V408.358H99.492H95.4883C95.4883 408.358 95.83 502.385 95.4883 502.144H99.7658H103.862Z" fill="black"/>
<path opacity="0.3" d="M103.074 327.229H99.4971V327.231H103.074V327.229Z" fill="black"/>
<path d="M99.4971 408.357H103.862V408.379H105.222V327.229H103.074V327.231H99.4971V408.357Z" fill="#D7D7D7"/>
<path opacity="0.3" d="M99.4971 408.357H103.862V408.379H105.222V327.229H103.074V327.231H99.4971V408.357Z" fill="black"/>
<path d="M103.862 408.356H99.4971V408.376H103.862V408.356Z" fill="#D7D7D7"/>
<path opacity="0.3" d="M103.862 408.356H99.4971V408.376H103.862V408.356Z" fill="black"/>
<path opacity="0.3" d="M103.862 408.356H99.4971V408.376H103.862V408.356Z" fill="black"/>
<path d="M106.472 327.229V252.172H103.073V327.229H105.222H106.472Z" fill="#D7D7D7"/>
<path opacity="0.3" d="M106.472 327.229V252.172H103.073V327.229H105.222H106.472Z" fill="black"/>
<path opacity="0.3" d="M167.214 408.296H167.17V408.38C168.677 408.38 169.995 407.547 170.758 406.299C169.989 407.503 168.688 408.296 167.214 408.296Z" fill="black"/>
<path d="M167.172 408.378H175.418V339.248H167.984C169.978 339.634 171.491 341.478 171.491 343.705V403.757C171.491 404.699 171.222 405.573 170.759 406.298C169.995 407.546 168.677 408.378 167.172 408.378Z" fill="#D7D7D7"/>
<path opacity="0.3" d="M167.172 408.378H175.418V339.248H167.984C169.978 339.634 171.491 341.478 171.491 343.705V403.757C171.491 404.699 171.222 405.573 170.759 406.298C169.995 407.546 168.677 408.378 167.172 408.378Z" fill="black"/>
<path opacity="0.3" d="M167.214 505.018H167.17V505.101C168.677 505.101 169.995 504.269 170.755 503.021C169.989 504.225 168.688 505.018 167.214 505.018Z" fill="black"/>
<path d="M167.172 505.098H175.418V425.683H167.172V426.081H167.216C169.577 426.081 171.491 428.114 171.491 430.622V500.477C171.491 501.419 171.222 502.292 170.759 503.017C169.995 504.266 168.677 505.098 167.172 505.098Z" fill="#D7D7D7"/>
<path opacity="0.3" d="M167.172 505.098H175.418V425.683H167.172V426.081H167.216C169.577 426.081 171.491 428.114 171.491 430.622V500.477C171.491 501.419 171.222 502.292 170.759 503.017C169.995 504.266 168.677 505.098 167.172 505.098Z" fill="black"/>
<path opacity="0.3" d="M167.212 326.221H166.017V326.304H167.169C168.676 326.304 169.994 325.472 170.754 324.224C169.987 325.428 168.687 326.221 167.212 326.221Z" fill="black"/>
<path d="M167.172 326.302H174.266V271.52H167.984C169.978 271.905 171.489 273.749 171.489 275.977V321.68C171.489 322.622 171.219 323.496 170.755 324.221C169.995 325.471 168.677 326.302 167.172 326.302Z" fill="#D7D7D7"/>
<path opacity="0.3" d="M167.172 326.302H174.266V271.52H167.984C169.978 271.905 171.489 273.749 171.489 275.977V321.68C171.489 322.622 171.219 323.496 170.755 324.221C169.995 325.471 168.677 326.302 167.172 326.302Z" fill="black"/>
<path d="M137.058 523.971C137.753 523.971 138.316 523.408 138.316 522.714V512.089C138.316 511.395 137.753 510.832 137.058 510.832H136.027C135.332 510.832 134.77 511.395 134.77 512.089V522.714C134.77 523.408 135.332 523.971 136.027 523.971H137.058Z" fill="#D7D7D7"/>
<path opacity="0.3" d="M137.058 523.971C137.753 523.971 138.316 523.408 138.316 522.714V512.089C138.316 511.395 137.753 510.832 137.058 510.832H136.027C135.332 510.832 134.77 511.395 134.77 512.089V522.714C134.77 523.408 135.332 523.971 136.027 523.971H137.058Z" fill="black"/>
<path d="M143.076 523.971C143.77 523.971 144.333 523.408 144.333 522.714V512.089C144.333 511.395 143.77 510.832 143.076 510.832H142.046C141.352 510.832 140.789 511.395 140.789 512.089V522.714C140.789 523.408 141.352 523.971 142.046 523.971H143.076Z" fill="#D7D7D7"/>
<path opacity="0.3" d="M143.076 523.971C143.77 523.971 144.333 523.408 144.333 522.714V512.089C144.333 511.395 143.77 510.832 143.076 510.832H142.046C141.352 510.832 140.789 511.395 140.789 512.089V522.714C140.789 523.408 141.352 523.971 142.046 523.971H143.076Z" fill="black"/>
<path d="M149.092 523.971C149.787 523.971 150.35 523.408 150.35 522.714V512.089C150.35 511.395 149.787 510.832 149.092 510.832H148.061C147.367 510.832 146.804 511.395 146.804 512.089V522.714C146.804 523.408 147.367 523.971 148.061 523.971H149.092Z" fill="#D7D7D7"/>
<path opacity="0.3" d="M149.092 523.971C149.787 523.971 150.35 523.408 150.35 522.714V512.089C150.35 511.395 149.787 510.832 149.092 510.832H148.061C147.367 510.832 146.804 511.395 146.804 512.089V522.714C146.804 523.408 147.367 523.971 148.061 523.971H149.092Z" fill="black"/>
<path d="M155.109 523.971C155.803 523.971 156.366 523.408 156.366 522.714V512.089C156.366 511.395 155.803 510.832 155.109 510.832H154.078C153.383 510.832 152.82 511.395 152.82 512.089V522.714C152.82 523.408 153.383 523.971 154.078 523.971H155.109Z" fill="#D7D7D7"/>
<path opacity="0.3" d="M155.109 523.971C155.803 523.971 156.366 523.408 156.366 522.714V512.089C156.366 511.395 155.803 510.832 155.109 510.832H154.078C153.383 510.832 152.82 511.395 152.82 512.089V522.714C152.82 523.408 153.383 523.971 154.078 523.971H155.109Z" fill="black"/>
<path d="M137.058 421.075C137.753 421.075 138.316 420.512 138.316 419.818V413.954C138.316 413.26 137.753 412.697 137.058 412.697H136.027C135.332 412.697 134.77 413.26 134.77 413.954V419.818C134.77 420.512 135.332 421.075 136.027 421.075H137.058Z" fill="#D7D7D7"/>
<path opacity="0.3" d="M137.058 421.075C137.753 421.075 138.316 420.512 138.316 419.818V413.954C138.316 413.26 137.753 412.697 137.058 412.697H136.027C135.332 412.697 134.77 413.26 134.77 413.954V419.818C134.77 420.512 135.332 421.075 136.027 421.075H137.058Z" fill="black"/>
<path d="M143.076 421.075C143.77 421.075 144.333 420.512 144.333 419.818V413.954C144.333 413.26 143.77 412.697 143.076 412.697H142.046C141.352 412.697 140.789 413.26 140.789 413.954V419.818C140.789 420.512 141.352 421.075 142.046 421.075H143.076Z" fill="#D7D7D7"/>
<path opacity="0.3" d="M143.076 421.075C143.77 421.075 144.333 420.512 144.333 419.818V413.954C144.333 413.26 143.77 412.697 143.076 412.697H142.046C141.352 412.697 140.789 413.26 140.789 413.954V419.818C140.789 420.512 141.352 421.075 142.046 421.075H143.076Z" fill="black"/>
<path d="M149.092 421.075C149.787 421.075 150.35 420.512 150.35 419.818V413.954C150.35 413.26 149.787 412.697 149.092 412.697H148.061C147.367 412.697 146.804 413.26 146.804 413.954V419.818C146.804 420.512 147.367 421.075 148.061 421.075H149.092Z" fill="#D7D7D7"/>
<path opacity="0.3" d="M149.092 421.075C149.787 421.075 150.35 420.512 150.35 419.818V413.954C150.35 413.26 149.787 412.697 149.092 412.697H148.061C147.367 412.697 146.804 413.26 146.804 413.954V419.818C146.804 420.512 147.367 421.075 148.061 421.075H149.092Z" fill="black"/>
<path d="M155.109 412.7H154.078C153.383 412.7 152.82 413.263 152.82 413.957V419.821C152.82 420.515 153.383 421.078 154.078 421.078H155.109C155.803 421.078 156.366 420.515 156.366 419.821V413.957C156.366 413.261 155.803 412.7 155.109 412.7Z" fill="#D7D7D7"/>
<path opacity="0.3" d="M155.109 412.7H154.078C153.383 412.7 152.82 413.263 152.82 413.957V419.821C152.82 420.515 153.383 421.078 154.078 421.078H155.109C155.803 421.078 156.366 420.515 156.366 419.821V413.957C156.366 413.261 155.803 412.7 155.109 412.7Z" fill="black"/>
<path d="M1.09473 650.382C1.09473 650.382 209.471 570.379 533.787 548.236C858.103 526.093 1435.93 518.948 1433.85 519.084L1433.82 491.47C1433.82 491.47 856.357 505.796 532.041 527.939C207.725 550.082 1.09473 637.584 1.09473 637.584V650.382Z" fill="#D7D7D7"/>
<path d="M389.727 537.137C333.422 537.137 275.331 513.439 227.325 470.265C177.263 425.237 126.384 314.29 108.902 251.51L110.485 251.069C127.913 313.655 178.595 424.227 228.427 469.041C281.636 516.9 350.164 541.284 411.76 534.251C411.973 534.224 433.949 531.463 450.713 524.62C485.84 510.287 518.142 488.902 555.446 455.284C590.03 424.117 619.4 387.805 641.128 359.654C673.922 317.157 794.728 132.07 847.826 25.8701L849.294 26.6038C796.156 132.885 675.249 318.126 642.429 360.658C620.66 388.866 591.225 425.25 556.547 456.504C519.095 490.258 486.646 511.735 451.335 526.145C434.366 533.068 412.178 535.858 411.955 535.885C404.592 536.724 397.173 537.137 389.727 537.137Z" fill="#9F9F9F"/>
<path d="M447.564 533.899C391.255 533.899 333.166 510.203 285.158 467.027C234.656 421.602 186.015 327.085 174.425 251.853L176.048 251.603C187.588 326.511 235.999 420.601 286.256 465.805C339.463 513.66 408 538.046 469.589 531.015C469.801 530.989 491.778 528.227 508.542 521.382C551.466 503.867 582.535 484.9 612.427 457.962C641.962 431.344 679.325 396.307 706.307 361.344C748.766 306.326 881.604 126.002 933.287 22.6299L934.754 23.3636C883.014 126.854 750.094 307.296 707.608 362.348C680.547 397.413 643.116 432.518 613.526 459.18C583.485 486.251 552.274 505.308 509.164 522.905C492.194 529.828 470.007 532.618 469.784 532.644C462.429 533.483 455.006 533.899 447.564 533.899Z" fill="#9F9F9F"/>
<path d="M932.532 400.285C932.565 400.566 932.607 400.846 932.607 401.137V400.583C932.594 400.474 932.55 400.392 932.532 400.285Z" fill="#D7D7D7"/>
<path d="M932.084 398.478C932.081 398.471 932.077 398.465 932.075 398.459C932.077 398.465 932.079 398.471 932.084 398.478Z" fill="#D7D7D7"/>
<path d="M848.556 117.119V229.637H846.83V359.647H841.633V698.055H855.6V685.139H848.09V674.733H853.471V669.709C853.471 669.709 854.238 669.166 855.6 668.207V624.949C848.839 619.84 844.325 616.368 844.141 616.077L848.09 614.78V607.097H853.471V605.643C853.471 605.643 854.238 605.099 855.6 604.14V560.883C848.839 555.773 844.325 552.302 844.141 552.01L857.435 547.648L872.968 559.028H919.791C925.313 555.184 929.814 552.074 932.595 550.197V539.057C932.527 542.463 930.136 545.205 927.181 545.205H861.027C858.029 545.205 855.6 542.387 855.6 538.911V401.141C855.6 397.665 858.029 394.846 861.027 394.846H927.181C927.505 394.846 927.818 394.894 928.127 394.958C928.029 394.929 927.956 394.872 927.856 394.846H940.491V506.373H932.611V529.777H940.257V607.099H941.38V617.505H940.257V674.733H941.38V685.139H940.257V698.055H954.857L958.63 697.873V359.647C958.63 359.647 954.29 359.233 953.933 359.647C953.576 360.063 953.933 229.609 953.933 229.609H948.853V117.123H944.309V13.0498H931.474V20.2162H902.254H887.888H858.668V13.0498H850.146V117.119H848.556ZM886.055 388.168V373.434C886.055 372.471 886.835 371.691 887.798 371.691H888.813C889.776 371.691 890.556 372.473 890.556 373.434V388.168C890.556 389.132 889.776 389.912 888.813 389.912H887.798C886.837 389.912 886.055 389.132 886.055 388.168ZM893.692 388.168V373.434C893.692 372.471 894.472 371.691 895.436 371.691H896.448C897.411 371.691 898.191 372.473 898.191 373.434V388.168C898.191 389.132 897.411 389.912 896.448 389.912H895.436C894.472 389.912 893.692 389.132 893.692 388.168ZM901.33 388.168V373.434C901.33 372.471 902.109 371.691 903.073 371.691H904.085C905.049 371.691 905.828 372.473 905.828 373.434V388.168C905.828 389.132 905.049 389.912 904.085 389.912H903.073C902.109 389.912 901.33 389.132 901.33 388.168ZM908.965 388.168V373.434C908.965 372.471 909.745 371.691 910.708 371.691H911.72C912.684 371.691 913.464 372.473 913.464 373.434V388.168C913.464 389.132 912.684 389.912 911.72 389.912H910.708C909.745 389.912 908.965 389.132 908.965 388.168ZM860.758 46.1683C860.758 42.6924 863.187 39.8735 866.185 39.8735H925.718H927.181C930.179 39.8735 932.608 42.6902 932.608 46.1683V109.538C932.608 110.798 932.282 111.963 931.732 112.946C932.319 111.941 932.661 110.73 932.661 109.424V46.0522C932.661 42.964 930.742 40.408 928.213 39.8735H936.185V115.831H927.181H925.718H866.185C863.189 115.831 860.758 113.014 860.758 109.536V46.1683ZM855.598 140.079C855.598 136.603 858.027 133.784 861.025 133.784H927.179C930.177 133.784 932.606 136.603 932.606 140.079V223.342C932.606 224.602 932.28 225.767 931.73 226.75C932.317 225.745 932.659 224.534 932.659 223.229V139.965C932.659 136.877 930.738 134.321 928.208 133.784H937.644V229.635H927.177H861.023C858.025 229.635 855.596 226.816 855.596 223.34V140.079H855.598ZM886.055 245.499V237.371C886.055 236.407 886.835 235.627 887.798 235.627H888.813C889.776 235.627 890.556 236.407 890.556 237.371V245.499C890.556 246.463 889.776 247.242 888.813 247.242H887.798C886.837 247.242 886.055 246.46 886.055 245.499ZM893.692 245.499V237.371C893.692 236.407 894.472 235.627 895.436 235.627H896.448C897.411 235.627 898.191 236.407 898.191 237.371V245.499C898.191 246.463 897.411 247.242 896.448 247.242H895.436C894.472 247.242 893.692 246.46 893.692 245.499ZM901.33 245.499V237.371C901.33 236.407 902.109 235.627 903.073 235.627H904.085C905.049 235.627 905.828 236.407 905.828 237.371V245.499C905.828 246.463 905.049 247.242 904.085 247.242H903.073C902.109 247.242 901.33 246.46 901.33 245.499ZM913.466 245.499C913.466 246.463 912.686 247.242 911.722 247.242H910.71C909.747 247.242 908.967 246.46 908.967 245.499V237.371C908.967 236.407 909.747 235.627 910.71 235.627H911.722C912.686 235.627 913.466 236.407 913.466 237.371V245.499ZM855.598 260.592C855.598 257.116 858.027 254.297 861.025 254.297H927.179C930.177 254.297 932.606 257.114 932.606 260.592V357.45C932.606 358.707 932.28 359.875 931.73 360.858C932.317 359.853 932.659 358.642 932.659 357.336V260.478C932.659 257.002 930.23 254.183 927.231 254.183H927.177V253.631H937.644V363.743H927.177H861.023C858.025 363.743 855.596 360.924 855.596 357.448V260.592H855.598Z" fill="#D7D7D7"/>
<path d="M841.289 117.12H841.282V229.606H841.289V117.12Z" fill="#D7D7D7"/>
<path d="M895.847 639.853L906.156 647.405L932.594 628.471V617.502H927.853C920.274 622.726 908.147 631.213 895.847 639.853Z" fill="#D7D7D7"/>
<path d="M885.333 647.244C888.816 649.843 892.29 652.432 895.645 654.934C907.564 663.815 918.003 671.573 922.259 674.733H928.923L932.594 673.529V666.774L906.156 647.406L895.847 639.854L865.337 617.505H858.453L853.47 621.073V617.505H848.089V614.782L844.14 616.079C844.324 616.372 848.838 619.842 855.599 624.951C863.488 630.913 874.45 639.12 885.333 647.244Z" fill="#D7D7D7"/>
<path d="M906.156 583.339L932.594 564.405V550.194C929.813 552.074 925.312 555.182 919.79 559.025C912.869 563.844 904.404 569.775 895.847 575.785L906.156 583.339Z" fill="#D7D7D7"/>
<path d="M872.983 607.096L895.648 590.864C892.292 588.362 888.819 585.774 885.336 583.174C872.131 592.465 860.276 600.834 855.6 604.136C854.239 605.098 853.471 605.639 853.471 605.639V607.093H872.983V607.096Z" fill="#D7D7D7"/>
<path d="M853.472 617.502V621.07L858.452 617.502H853.472Z" fill="#D7D7D7"/>
<path d="M885.335 583.178C888.817 585.778 892.291 588.367 895.646 590.868C904.306 597.321 912.163 603.164 917.459 607.1H932.595V602.711L906.155 583.34L895.846 575.788L872.966 559.029L857.433 547.648L844.139 552.011C844.323 552.305 848.837 555.774 855.598 560.884C863.489 566.848 874.451 575.055 885.335 583.178Z" fill="#D7D7D7"/>
<path d="M941.377 607.096H940.253V617.501H941.377V607.096Z" fill="#D7D7D7"/>
<path d="M853.473 617.501H858.454H865.34H927.856H932.598V607.096H917.461H872.984H853.473H848.09V614.779V617.501H853.473Z" fill="#D7D7D7"/>
<path d="M831.506 698.055H841.632V359.647H836.202C836.202 359.647 836.128 359.647 835.996 359.647H831.504V698.055H831.506Z" fill="#D7D7D7"/>
<path opacity="0.3" d="M831.506 698.055H841.632V359.647H836.202C836.202 359.647 836.128 359.647 835.996 359.647H831.504V698.055H831.506Z" fill="black"/>
<path opacity="0.3" d="M932.074 398.459C931.84 397.888 931.537 397.366 931.174 396.906C931.533 397.362 931.84 397.872 932.074 398.459Z" fill="black"/>
<path opacity="0.3" d="M928.126 394.956C928.693 395.123 929.234 395.317 929.694 395.593C929.208 395.296 928.687 395.07 928.126 394.956Z" fill="black"/>
<path opacity="0.3" d="M929.721 395.61C930.244 395.928 930.695 396.32 931.081 396.782C930.689 396.307 930.224 395.924 929.721 395.61Z" fill="black"/>
<path opacity="0.3" d="M932.532 400.285C932.458 399.646 932.309 399.041 932.081 398.479C932.296 399.017 932.427 399.637 932.532 400.285Z" fill="black"/>
<path d="M929.723 395.611C930.227 395.924 930.691 396.308 931.083 396.783C931.116 396.822 931.14 396.868 931.173 396.908C931.536 397.37 931.841 397.889 932.073 398.461C932.075 398.467 932.08 398.474 932.082 398.48C932.31 399.043 932.456 399.65 932.533 400.287C932.551 400.395 932.592 400.476 932.608 400.585V401.139V506.371H940.488V394.845H927.853C927.955 394.871 928.026 394.926 928.124 394.956C928.685 395.07 929.206 395.296 929.692 395.594C929.705 395.6 929.714 395.605 929.723 395.611Z" fill="#D7D7D7"/>
<path opacity="0.3" d="M929.723 395.611C930.227 395.924 930.691 396.308 931.083 396.783C931.116 396.822 931.14 396.868 931.173 396.908C931.536 397.37 931.841 397.889 932.073 398.461C932.075 398.467 932.08 398.474 932.082 398.48C932.31 399.043 932.456 399.65 932.533 400.287C932.551 400.395 932.592 400.476 932.608 400.585V401.139V506.371H940.488V394.845H927.853C927.955 394.871 928.026 394.926 928.124 394.956C928.685 395.07 929.206 395.296 929.692 395.594C929.705 395.6 929.714 395.605 929.723 395.611Z" fill="black"/>
<path opacity="0.3" d="M932.607 529.774H932.594V539.054C932.594 539.004 932.607 538.958 932.607 538.908V529.774Z" fill="black"/>
<path opacity="0.3" d="M932.597 602.708L932.608 602.717V564.396L932.597 564.405V602.708Z" fill="black"/>
<path opacity="0.3" d="M932.597 666.776L932.608 666.785V628.465L932.597 628.474V666.776Z" fill="black"/>
<path d="M940.253 674.73V617.502V607.096V529.774H932.607V538.908C932.607 538.958 932.596 539.004 932.594 539.054V550.194V564.404L932.607 564.395V602.716L932.594 602.707V607.096V617.502V628.471L932.607 628.462V666.782L932.594 666.773V673.528L932.607 673.524V674.733H932.594V685.138H932.607V698.054H940.253V685.138V674.73Z" fill="#D7D7D7"/>
<path opacity="0.3" d="M940.253 674.73V617.502V607.096V529.774H932.607V538.908C932.607 538.958 932.596 539.004 932.594 539.054V550.194V564.404L932.607 564.395V602.716L932.594 602.707V607.096V617.502V628.471L932.607 628.462V666.782L932.594 666.773V673.528L932.607 673.524V674.733H932.594V685.138H932.607V698.054H940.253V685.138V674.73Z" fill="black"/>
<path opacity="0.3" d="M836.202 229.608V359.647C836.636 359.98 836.202 229.608 836.202 229.608Z" fill="black"/>
<path d="M846.829 359.647V229.637H841.29V229.608H841.283H836.202C836.202 229.608 836.636 359.982 836.202 359.647H841.632H846.829Z" fill="#D7D7D7"/>
<path opacity="0.3" d="M846.829 359.647V229.637H841.29V229.608H841.283H836.202C836.202 229.608 836.636 359.982 836.202 359.647H841.632H846.829Z" fill="black"/>
<path opacity="0.3" d="M845.827 117.117H841.289V117.119H845.827V117.117Z" fill="black"/>
<path d="M841.289 229.607H846.83V229.636H848.556V117.117H845.829V117.119H841.289V229.607Z" fill="#D7D7D7"/>
<path opacity="0.3" d="M841.289 229.607H846.83V229.636H848.556V117.117H845.829V117.119H841.289V229.607Z" fill="black"/>
<path d="M846.828 229.608H841.289V229.637H846.828V229.608Z" fill="#D7D7D7"/>
<path opacity="0.3" d="M846.828 229.608H841.289V229.637H846.828V229.608Z" fill="black"/>
<path opacity="0.3" d="M846.828 229.608H841.289V229.637H846.828V229.608Z" fill="black"/>
<path d="M850.142 117.119V13.0498H845.829V117.119H848.556H850.142Z" fill="#D7D7D7"/>
<path opacity="0.3" d="M850.142 117.119V13.0498H845.829V117.119H848.556H850.142Z" fill="black"/>
<path opacity="0.3" d="M927.233 229.522H927.179V229.636C929.091 229.636 930.764 228.484 931.73 226.749C930.755 228.422 929.106 229.522 927.233 229.522Z" fill="black"/>
<path d="M927.179 229.636H937.646V133.785H928.21C930.74 134.32 932.661 136.878 932.661 139.966V223.23C932.661 224.535 932.319 225.746 931.732 226.752C930.764 228.482 929.093 229.636 927.179 229.636Z" fill="#D7D7D7"/>
<path opacity="0.3" d="M927.179 229.636H937.646V133.785H928.21C930.74 134.32 932.661 136.878 932.661 139.966V223.23C932.661 224.535 932.319 225.746 931.732 226.752C930.764 228.482 929.093 229.636 927.179 229.636Z" fill="black"/>
<path opacity="0.3" d="M927.233 363.628H927.179V363.742C929.091 363.742 930.764 362.59 931.73 360.855C930.755 362.529 929.106 363.628 927.233 363.628Z" fill="black"/>
<path d="M927.179 363.742H937.646V253.631H927.179V254.183H927.233C930.23 254.183 932.661 256.999 932.661 260.477V357.336C932.661 358.641 932.319 359.853 931.732 360.858C930.764 362.59 929.091 363.742 927.179 363.742Z" fill="#D7D7D7"/>
<path opacity="0.3" d="M927.179 363.742H937.646V253.631H927.179V254.183H927.233C930.23 254.183 932.661 256.999 932.661 260.477V357.336C932.661 358.641 932.319 359.853 931.732 360.858C930.764 362.59 929.091 363.742 927.179 363.742Z" fill="black"/>
<path opacity="0.3" d="M927.232 115.716H925.717V115.83H927.18C929.092 115.83 930.765 114.678 931.731 112.945C930.754 114.616 929.105 115.716 927.232 115.716Z" fill="black"/>
<path d="M927.179 115.831H936.183V39.874H928.21C930.74 40.4106 932.659 42.9666 932.659 46.0527V109.423C932.659 110.728 932.317 111.939 931.73 112.944C930.764 114.679 929.091 115.831 927.179 115.831Z" fill="#D7D7D7"/>
<path opacity="0.3" d="M927.179 115.831H936.183V39.874H928.21C930.74 40.4106 932.659 42.9666 932.659 46.0527V109.423C932.659 110.728 932.317 111.939 931.73 112.944C930.764 114.679 929.091 115.831 927.179 115.831Z" fill="black"/>
<path d="M888.813 389.911C889.777 389.911 890.557 389.131 890.557 388.168V373.434C890.557 372.47 889.777 371.69 888.813 371.69H887.799C886.835 371.69 886.056 372.472 886.056 373.434V388.168C886.056 389.131 886.835 389.911 887.799 389.911H888.813Z" fill="#D7D7D7"/>
<path opacity="0.3" d="M888.813 389.911C889.777 389.911 890.557 389.131 890.557 388.168V373.434C890.557 372.47 889.777 371.69 888.813 371.69H887.799C886.835 371.69 886.056 372.472 886.056 373.434V388.168C886.056 389.131 886.835 389.911 887.799 389.911H888.813Z" fill="black"/>
<path d="M896.448 389.911C897.411 389.911 898.191 389.131 898.191 388.168V373.434C898.191 372.47 897.411 371.69 896.448 371.69H895.436C894.472 371.69 893.692 372.472 893.692 373.434V388.168C893.692 389.131 894.472 389.911 895.436 389.911H896.448Z" fill="#D7D7D7"/>
<path opacity="0.3" d="M896.448 389.911C897.411 389.911 898.191 389.131 898.191 388.168V373.434C898.191 372.47 897.411 371.69 896.448 371.69H895.436C894.472 371.69 893.692 372.472 893.692 373.434V388.168C893.692 389.131 894.472 389.911 895.436 389.911H896.448Z" fill="black"/>
<path d="M904.084 389.911C905.048 389.911 905.828 389.131 905.828 388.168V373.434C905.828 372.47 905.048 371.69 904.084 371.69H903.073C902.109 371.69 901.329 372.472 901.329 373.434V388.168C901.329 389.131 902.109 389.911 903.073 389.911H904.084Z" fill="#D7D7D7"/>
<path opacity="0.3" d="M904.084 389.911C905.048 389.911 905.828 389.131 905.828 388.168V373.434C905.828 372.47 905.048 371.69 904.084 371.69H903.073C902.109 371.69 901.329 372.472 901.329 373.434V388.168C901.329 389.131 902.109 389.911 903.073 389.911H904.084Z" fill="black"/>
<path d="M911.723 389.911C912.687 389.911 913.467 389.131 913.467 388.168V373.434C913.467 372.47 912.687 371.69 911.723 371.69H910.711C909.747 371.69 908.968 372.472 908.968 373.434V388.168C908.968 389.131 909.747 389.911 910.711 389.911H911.723Z" fill="#D7D7D7"/>
<path opacity="0.3" d="M911.723 389.911C912.687 389.911 913.467 389.131 913.467 388.168V373.434C913.467 372.47 912.687 371.69 911.723 371.69H910.711C909.747 371.69 908.968 372.472 908.968 373.434V388.168C908.968 389.131 909.747 389.911 910.711 389.911H911.723Z" fill="black"/>
<path d="M888.813 247.242C889.777 247.242 890.557 246.46 890.557 245.498V237.37C890.557 236.407 889.777 235.627 888.813 235.627H887.799C886.835 235.627 886.056 236.407 886.056 237.37V245.498C886.056 246.462 886.835 247.242 887.799 247.242H888.813Z" fill="#D7D7D7"/>
<path opacity="0.3" d="M888.813 247.242C889.777 247.242 890.557 246.46 890.557 245.498V237.37C890.557 236.407 889.777 235.627 888.813 235.627H887.799C886.835 235.627 886.056 236.407 886.056 237.37V245.498C886.056 246.462 886.835 247.242 887.799 247.242H888.813Z" fill="black"/>
<path d="M896.448 247.242C897.411 247.242 898.191 246.46 898.191 245.498V237.37C898.191 236.407 897.411 235.627 896.448 235.627H895.436C894.472 235.627 893.692 236.407 893.692 237.37V245.498C893.692 246.462 894.472 247.242 895.436 247.242H896.448Z" fill="#D7D7D7"/>
<path opacity="0.3" d="M896.448 247.242C897.411 247.242 898.191 246.46 898.191 245.498V237.37C898.191 236.407 897.411 235.627 896.448 235.627H895.436C894.472 235.627 893.692 236.407 893.692 237.37V245.498C893.692 246.462 894.472 247.242 895.436 247.242H896.448Z" fill="black"/>
<path d="M904.084 247.242C905.048 247.242 905.828 246.46 905.828 245.498V237.37C905.828 236.407 905.048 235.627 904.084 235.627H903.073C902.109 235.627 901.329 236.407 901.329 237.37V245.498C901.329 246.462 902.109 247.242 903.073 247.242H904.084Z" fill="#D7D7D7"/>
<path opacity="0.3" d="M904.084 247.242C905.048 247.242 905.828 246.46 905.828 245.498V237.37C905.828 236.407 905.048 235.627 904.084 235.627H903.073C902.109 235.627 901.329 236.407 901.329 237.37V245.498C901.329 246.462 902.109 247.242 903.073 247.242H904.084Z" fill="black"/>
<path d="M911.723 235.627H910.711C909.747 235.627 908.968 236.407 908.968 237.37V245.498C908.968 246.462 909.747 247.242 910.711 247.242H911.723C912.687 247.242 913.467 246.46 913.467 245.498V237.37C913.467 236.407 912.685 235.627 911.723 235.627Z" fill="#D7D7D7"/>
<path opacity="0.3" d="M911.723 235.627H910.711C909.747 235.627 908.968 236.407 908.968 237.37V245.498C908.968 246.462 909.747 247.242 910.711 247.242H911.723C912.687 247.242 913.467 246.46 913.467 245.498V237.37C913.467 236.407 912.685 235.627 911.723 235.627Z" fill="black"/>
<path opacity="0.3" d="M99.8455 619.505L91.792 621.761V606.186L99.771 603.779L99.8455 619.505Z" fill="black"/>
<path d="M1344.88 494.693C1287.87 491.91 1226.51 464.777 1162.52 414.045C1111.38 373.504 1058.44 317.878 1005.17 248.717C914.498 130.99 853.491 13.2262 852.887 12.0523L854.345 11.2988C854.95 12.475 915.9 130.123 1006.49 247.734C1059.67 316.785 1112.52 372.31 1163.55 412.768C1227.26 463.279 1288.3 490.291 1344.96 493.053L1344.88 494.693Z" fill="#9F9F9F"/>
<path d="M1429.39 492.023C1372.38 489.241 1310.97 462.247 1246.88 411.793C1195.66 371.473 1142.61 316.156 1089.2 247.383C998.287 130.315 937.04 13.2213 936.431 12.0517L937.889 11.2939C938.496 12.4613 999.687 129.441 1090.51 246.393C1143.84 315.057 1196.79 370.275 1247.9 410.509C1311.72 460.744 1372.81 487.616 1429.47 490.38L1429.39 492.023Z" fill="#9F9F9F"/>
<path d="M527.943 479.804H527.396V528.267H527.943V479.804Z" fill="#9F9F9F"/>
<path d="M504.484 496.839H503.937V530.019H504.484V496.839Z" fill="#9F9F9F"/>
<path d="M482.407 509.686H481.859V531.986H482.407V509.686Z" fill="#9F9F9F"/>
<path d="M461.732 520.836H461.185V533.458H461.732V520.836Z" fill="#9F9F9F"/>
<path d="M402.418 528.466H401.87V541.088H402.418V528.466Z" fill="#9F9F9F"/>
<path d="M385.084 522.685H384.536V542.997H385.084V522.685Z" fill="#9F9F9F"/>
<path d="M366.467 517.075H365.92V546.899H366.467V517.075Z" fill="#9F9F9F"/>
<path d="M347.85 508.488H347.303V547.691H347.85V508.488Z" fill="#9F9F9F"/>
<path d="M327.519 496.839H326.972V552.057H327.519V496.839Z" fill="#9F9F9F"/>
<path d="M310.616 486.171H310.068V555.522H310.616V486.171Z" fill="#9F9F9F"/>
<path d="M293.714 473.166H293.166V557.779H293.714V473.166Z" fill="#9F9F9F"/>
<path d="M276.812 457.604H276.265V561.609H276.812V457.604Z" fill="#9F9F9F"/>
<path d="M259.91 438.446H259.362V564.43H259.91V438.446Z" fill="#9F9F9F"/>
<path d="M243.011 415.479H242.464V567.77H243.011V415.479Z" fill="#9F9F9F"/>
<path d="M207.794 353.648H207.246V575.527H207.794V353.648Z" fill="#9F9F9F"/>
<path d="M192.22 315.101H191.673V577.564H192.22V315.101Z" fill="#9F9F9F"/>
<path d="M159.828 356.348H159.28V587.226H159.828V356.348Z" fill="#9F9F9F"/>
<path d="M144.607 339.251H144.06V591.228H144.607V339.251Z" fill="#9F9F9F"/>
<path d="M129.383 305.576H128.836V595.379H129.383V305.576Z" fill="#9F9F9F"/>
<path d="M114.161 281.27H113.613V599.551H114.161V281.27Z" fill="#9F9F9F"/>
<path d="M83.717 423.509H83.1694V608.769H83.717V423.509Z" fill="#9F9F9F"/>
<path d="M68.9757 613.423H68.4282C68.4282 591.873 68.3055 569.82 68.1894 548.491C68.0733 527.163 67.9507 505.107 67.9507 483.558H68.4982C68.4982 505.107 68.6209 527.161 68.737 548.489C68.8531 569.818 68.9757 591.871 68.9757 613.423Z" fill="#9F9F9F"/>
<path d="M53.2731 532.66H52.7256V618.581H53.2731V532.66Z" fill="#9F9F9F"/>
<path d="M38.0505 569.95H37.5029V623.799H38.0505V569.95Z" fill="#9F9F9F"/>
<path d="M22.8288 628.902H22.2812C22.2812 623.804 22.4806 619.809 22.6733 615.945C22.866 612.09 23.0654 608.104 23.0654 603.021H23.6129C23.6129 608.119 23.4136 612.112 23.2209 615.974C23.0281 619.828 22.8288 623.815 22.8288 628.902Z" fill="#9F9F9F"/>
<path d="M226.108 388.439H225.561V571.998H226.108V388.439Z" fill="#9F9F9F"/>
<path d="M548.436 465.025H547.889V527.11H548.436V465.025Z" fill="#9F9F9F"/>
<path d="M568.925 445.354H568.377V525.626H568.925V445.354Z" fill="#9F9F9F"/>
<path d="M589.416 423.509H588.868V523.712H589.416V423.509Z" fill="#9F9F9F"/>
<path d="M609.904 400.024H609.356V523.05H609.904V400.024Z" fill="#9F9F9F"/>
<path d="M630.397 375.001H629.85V521.871H630.397V375.001Z" fill="#9F9F9F"/>
<path d="M650.885 349.915H650.338V520.733H650.885V349.915Z" fill="#9F9F9F"/>
<path d="M671.376 321.115H670.828V518.367H671.376V321.115Z" fill="#9F9F9F"/>
<path d="M691.864 290.195H691.316V518.422H691.864V290.195Z" fill="#9F9F9F"/>
<path d="M712.356 256.041H711.809V518.367H712.356V256.041Z" fill="#9F9F9F"/>
<path d="M732.846 224.398H732.299V516.24H732.846V224.398Z" fill="#9F9F9F"/>
<path d="M753.337 194.707H752.789V516.704H753.337V194.707Z" fill="#9F9F9F"/>
<path d="M773.825 160.188H773.277V514.55H773.825V160.188Z" fill="#9F9F9F"/>
<path d="M794.317 125.093H793.77V513.035H794.317V125.093Z" fill="#9F9F9F"/>
<path d="M814.806 89.6748H814.259V513.035H814.806V89.6748Z" fill="#9F9F9F"/>
<path d="M836.474 50.127H835.927V511.54H836.474V50.127Z" fill="#9F9F9F"/>
<path d="M873.311 50.127H872.764V509.696H873.311V50.127Z" fill="#9F9F9F"/>
<path d="M897.011 86.6777H896.464V508.667H897.011V86.6777Z" fill="#9F9F9F"/>
<path d="M921.874 39.875H921.326V508.667H921.874V39.875Z" fill="#9F9F9F"/>
<path d="M946.202 29.248H945.654V508.667H946.202V29.248Z" fill="#9F9F9F"/>
<path d="M970.534 70.2656H969.986V508.666H970.534V70.2656Z" fill="#9F9F9F"/>
<path d="M2.19023 650.378H0V636.855L0.668021 636.573C0.987794 636.435 33.436 622.776 91.4793 605.158L92.1145 607.254C38.7561 623.451 7.09634 636.284 2.19023 638.31V650.378Z" fill="#9F9F9F"/>
<path d="M111.121 601.413L110.512 599.309C200.66 573.223 346.956 539.476 531.967 526.845C610.772 521.463 711.535 516.08 831.459 510.841L831.553 513.029C711.649 518.268 610.903 523.651 532.116 529.031C347.296 541.649 201.166 575.356 111.121 601.413Z" fill="#9F9F9F"/>
<path d="M855.644 511.995L855.55 509.805C1137.91 497.774 1430.87 490.447 1433.8 490.375L1433.85 492.565C1430.93 492.638 1137.99 499.962 855.644 511.995Z" fill="#9F9F9F"/>
<path d="M270.14 589.717C296.063 585.12 321.987 580.525 347.91 575.927C348.948 575.743 348.508 574.16 347.474 574.344C321.551 578.941 295.627 583.536 269.704 588.134C268.663 588.318 269.104 589.901 270.14 589.717Z" fill="#D7D7D7"/>
<path d="M353.024 575.158C355.488 574.669 357.952 574.181 360.419 573.692C360.854 573.607 361.104 573.088 360.992 572.683C360.868 572.229 360.419 572.023 359.983 572.109C357.519 572.597 355.055 573.086 352.591 573.574C352.155 573.659 351.905 574.179 352.017 574.584C352.139 575.039 352.588 575.245 353.024 575.158Z" fill="#D7D7D7"/>
</svg>
