<svg width="63" height="63" viewBox="0 0 63 63" fill="none" xmlns="http://www.w3.org/2000/svg">
<path d="M31.5 63.0001C48.897 63.0001 63 48.8971 63 31.5001C63 14.1031 48.897 0 31.5 0C14.103 0 0 14.1031 0 31.5001C0 48.8971 14.103 63.0001 31.5 63.0001Z" fill="#041D56"/>
<path d="M31.9686 62.9816C32.5553 62.9775 33.1418 62.9569 33.7273 62.9199C34.7755 62.8458 35.8194 62.7192 36.855 62.5406C37.8896 62.3623 38.9146 62.1323 39.9262 61.8516C40.9384 61.5709 41.9358 61.2397 42.9148 60.8593C43.8938 60.4788 44.8531 60.0495 45.7892 59.5731C46.7247 59.0965 47.6359 58.5735 48.5192 58.0059C49.4027 57.4391 50.2573 56.8285 51.0799 56.1763C51.9029 55.5232 52.6927 54.8293 53.4463 54.0973C54.1992 53.3653 54.9149 52.5961 55.5909 51.7926C56.2685 50.9893 56.9054 50.1526 57.4993 49.2857C58.0923 48.419 58.6416 47.5232 59.1452 46.6016C59.648 45.68 60.1045 44.7338 60.5128 43.7666C60.922 42.7991 61.2825 41.8118 61.593 40.8083C61.9031 39.8051 62.1629 38.7871 62.3713 37.758C62.5806 36.7288 62.7383 35.6897 62.8438 34.6448C62.926 33.7537 62.9703 32.8595 62.9764 31.9646L46.032 15.0216L46.0215 15.0111C45.9516 14.9454 45.877 14.8849 45.7984 14.8299C45.7774 14.8142 45.759 14.7932 45.738 14.7774L45.7327 14.7761C45.6776 14.7394 45.6159 14.7118 45.5582 14.6816C45.4991 14.6501 45.444 14.6147 45.381 14.5898C45.2662 14.5415 45.1471 14.5042 45.0253 14.4782H45.0227C44.8918 14.4512 44.7586 14.4375 44.625 14.4375H18.375C17.3092 14.4375 16.4062 15.2919 16.4062 16.3577V46.6449C16.407 46.9018 16.4611 47.1556 16.5651 47.3904L16.5913 47.4403C16.6359 47.5348 16.6845 47.628 16.7449 47.7146C16.7659 47.7448 16.7948 47.7711 16.8184 47.8013C16.8669 47.8616 16.9102 47.9233 16.9654 47.9784L16.9916 48.0047L31.9686 62.9816Z" fill="black"/>
<path d="M18.375 14.4375C17.3092 14.4375 16.4062 15.2918 16.4062 16.3575V46.6449C16.4062 47.7106 17.3092 48.5625 18.375 48.5625H44.625C45.6907 48.5625 46.5937 47.7106 46.5937 46.6461V16.3575C46.5937 15.2918 45.6907 14.4375 44.625 14.4375H18.375ZM18.375 15.75H44.625C45.0135 15.75 45.2812 16.0255 45.2812 16.3575V46.6449C45.2812 46.9782 45.0135 47.25 44.625 47.25H18.375C17.9865 47.25 17.7187 46.9782 17.7187 46.6461V16.3575C17.7187 16.0242 17.9865 15.75 18.375 15.75ZM19.6875 17.0625C19.5135 17.0625 19.3465 17.1315 19.2235 17.2546C19.1004 17.3777 19.0312 17.5447 19.0312 17.7187V21.6562C19.0312 21.8303 19.1004 21.9972 19.2235 22.1202C19.3465 22.2433 19.5135 22.3125 19.6875 22.3125H43.3125C43.4865 22.3125 43.6535 22.2433 43.7765 22.1202C43.8996 21.9972 43.9687 21.8303 43.9687 21.6562V17.7187C43.9687 17.5447 43.8996 17.3777 43.7765 17.2546C43.6535 17.1315 43.4865 17.0625 43.3125 17.0625H19.6875ZM20.3437 18.375H42.6562V21H20.3437V18.375ZM19.6875 24.9375C19.5135 24.9375 19.3465 25.0065 19.2235 25.1296C19.1004 25.2527 19.0312 25.4197 19.0312 25.5937V29.5312C19.0312 29.7053 19.1004 29.8722 19.2235 29.9952C19.3465 30.1183 19.5135 30.1875 19.6875 30.1875H23.625C23.799 30.1875 23.966 30.1183 24.089 29.9952C24.2121 29.8722 24.2812 29.7053 24.2812 29.5312V25.5937C24.2812 25.4197 24.2121 25.2527 24.089 25.1296C23.966 25.0065 23.799 24.9375 23.625 24.9375H19.6875ZM26.25 24.9375C26.0759 24.9375 25.909 25.0065 25.786 25.1296C25.6629 25.2527 25.5937 25.4197 25.5937 25.5937V29.5312C25.5937 29.7053 25.6629 29.8722 25.786 29.9952C25.909 30.1183 26.0759 30.1875 26.25 30.1875H30.1875C30.3615 30.1875 30.5285 30.1183 30.6515 29.9952C30.7746 29.8722 30.8437 29.7053 30.8437 29.5312V25.5937C30.8437 25.4197 30.7746 25.2527 30.6515 25.1296C30.5285 25.0065 30.3615 24.9375 30.1875 24.9375H26.25ZM32.8125 24.9375C32.6384 24.9375 32.4715 25.0065 32.3485 25.1296C32.2254 25.2527 32.1562 25.4197 32.1562 25.5937V29.5312C32.1562 29.7053 32.2254 29.8722 32.3485 29.9952C32.4715 30.1183 32.6384 30.1875 32.8125 30.1875H36.75C36.924 30.1875 37.091 30.1183 37.214 29.9952C37.3371 29.8722 37.4062 29.7053 37.4062 29.5312V25.5937C37.4062 25.4197 37.3371 25.2527 37.214 25.1296C37.091 25.0065 36.924 24.9375 36.75 24.9375H32.8125ZM39.375 24.9375C39.2009 24.9375 39.034 25.0065 38.911 25.1296C38.7879 25.2527 38.7187 25.4197 38.7187 25.5937V29.5312C38.7187 29.7053 38.7879 29.8722 38.911 29.9952C39.034 30.1183 39.2009 30.1875 39.375 30.1875H43.3125C43.4865 30.1875 43.6535 30.1183 43.7765 29.9952C43.8996 29.8722 43.9687 29.7053 43.9687 29.5312V25.5937C43.9687 25.4197 43.8996 25.2527 43.7765 25.1296C43.6535 25.0065 43.4865 24.9375 43.3125 24.9375H39.375ZM20.3437 26.25H22.9687V28.875H20.3437V26.25ZM26.9062 26.25H29.5312V28.875H26.9062V26.25ZM33.4687 26.25H36.0937V28.875H33.4687V26.25ZM40.0312 26.25H42.6562V28.875H40.0312V26.25ZM19.6875 32.8125C19.5135 32.8125 19.3465 32.8815 19.2235 33.0046C19.1004 33.1277 19.0312 33.2947 19.0312 33.4687V37.4062C19.0312 37.5803 19.1004 37.7472 19.2235 37.8702C19.3465 37.9933 19.5135 38.0625 19.6875 38.0625H23.625C23.799 38.0625 23.966 37.9933 24.089 37.8702C24.2121 37.7472 24.2812 37.5803 24.2812 37.4062V33.4687C24.2812 33.2947 24.2121 33.1277 24.089 33.0046C23.966 32.8815 23.799 32.8125 23.625 32.8125H19.6875ZM26.25 32.8125C26.0759 32.8125 25.909 32.8815 25.786 33.0046C25.6629 33.1277 25.5937 33.2947 25.5937 33.4687V37.4062C25.5937 37.5803 25.6629 37.7472 25.786 37.8702C25.909 37.9933 26.0759 38.0625 26.25 38.0625H30.1875C30.3615 38.0625 30.5285 37.9933 30.6515 37.8702C30.7746 37.7472 30.8437 37.5803 30.8437 37.4062V33.4687C30.8437 33.2947 30.7746 33.1277 30.6515 33.0046C30.5285 32.8815 30.3615 32.8125 30.1875 32.8125H26.25ZM32.8125 32.8125C32.6384 32.8125 32.4715 32.8815 32.3485 33.0046C32.2254 33.1277 32.1562 33.2947 32.1562 33.4687V37.4062C32.1562 37.5803 32.2254 37.7472 32.3485 37.8702C32.4715 37.9933 32.6384 38.0625 32.8125 38.0625H36.75C36.924 38.0625 37.091 37.9933 37.214 37.8702C37.3371 37.7472 37.4062 37.5803 37.4062 37.4062V33.4687C37.4062 33.2947 37.3371 33.1277 37.214 33.0046C37.091 32.8815 36.924 32.8125 36.75 32.8125H32.8125ZM39.375 32.8125C39.2009 32.8125 39.034 32.8815 38.911 33.0046C38.7879 33.1277 38.7187 33.2947 38.7187 33.4687V45.2812C38.7187 45.4553 38.7879 45.6222 38.911 45.7452C39.034 45.8683 39.2009 45.9375 39.375 45.9375H43.3125C43.4865 45.9375 43.6535 45.8683 43.7765 45.7452C43.8996 45.6222 43.9687 45.4553 43.9687 45.2812V33.4687C43.9687 33.2947 43.8996 33.1277 43.7765 33.0046C43.6535 32.8815 43.4865 32.8125 43.3125 32.8125H39.375ZM20.3437 34.125H22.9687V36.75H20.3437V34.125ZM26.9062 34.125H29.5312V36.75H26.9062V34.125ZM33.4687 34.125H36.0937V36.75H33.4687V34.125ZM40.0312 34.125H42.6562V44.625H40.0312V34.125ZM19.6875 40.6875C19.5135 40.6875 19.3465 40.7565 19.2235 40.8796C19.1004 41.0027 19.0312 41.1697 19.0312 41.3437V45.2812C19.0312 45.4553 19.1004 45.6222 19.2235 45.7452C19.3465 45.8683 19.5135 45.9375 19.6875 45.9375H23.625C23.799 45.9375 23.966 45.8683 24.089 45.7452C24.2121 45.6222 24.2812 45.4553 24.2812 45.2812V41.3437C24.2812 41.1697 24.2121 41.0027 24.089 40.8796C23.966 40.7565 23.799 40.6875 23.625 40.6875H19.6875ZM26.25 40.6875C26.0759 40.6875 25.909 40.7565 25.786 40.8796C25.6629 41.0027 25.5937 41.1697 25.5937 41.3437V45.2812C25.5937 45.4553 25.6629 45.6222 25.786 45.7452C25.909 45.8683 26.0759 45.9375 26.25 45.9375H30.1875C30.3615 45.9375 30.5285 45.8683 30.6515 45.7452C30.7746 45.6222 30.8437 45.4553 30.8437 45.2812V41.3437C30.8437 41.1697 30.7746 41.0027 30.6515 40.8796C30.5285 40.7565 30.3615 40.6875 30.1875 40.6875H26.25ZM32.8125 40.6875C32.6384 40.6875 32.4715 40.7565 32.3485 40.8796C32.2254 41.0027 32.1562 41.1697 32.1562 41.3437V45.2812C32.1562 45.4553 32.2254 45.6222 32.3485 45.7452C32.4715 45.8683 32.6384 45.9375 32.8125 45.9375H36.75C36.924 45.9375 37.091 45.8683 37.214 45.7452C37.3371 45.6222 37.4062 45.4553 37.4062 45.2812V41.3437C37.4062 41.1697 37.3371 41.0027 37.214 40.8796C37.091 40.7565 36.924 40.6875 36.75 40.6875H32.8125ZM20.3437 42H22.9687V44.625H20.3437V42ZM26.9062 42H29.5312V44.625H26.9062V42ZM33.4687 42H36.0937V44.625H33.4687V42Z" fill="white"/>
</svg>
