<svg width="63" height="63" viewBox="0 0 63 63" fill="none" xmlns="http://www.w3.org/2000/svg">
<g clip-path="url(#clip0_234_452)">
<path d="M31.5 63.0001C48.897 63.0001 63 48.8971 63 31.5001C63 14.1031 48.897 0 31.5 0C14.103 0 0 14.1031 0 31.5001C0 48.8971 14.103 63.0001 31.5 63.0001Z" fill="#041D56"/>
<path d="M29.1034 62.8819C29.9005 62.9517 30.6999 62.9911 31.5 63.0001C32.2431 63.0001 32.986 62.9738 33.7273 62.9213C34.7756 62.8467 35.8194 62.7197 36.855 62.5407C37.8896 62.3623 38.9146 62.1323 39.9263 61.8516C40.9384 61.5709 41.9358 61.2397 42.9148 60.8594C43.8938 60.4788 44.8531 60.0495 45.7892 59.5731C46.7247 59.0966 47.6359 58.5735 48.5192 58.006C49.4027 57.4392 50.2573 56.8285 51.0799 56.1764C51.9029 55.5233 52.6927 54.8294 53.4463 54.0974C54.1992 53.3653 54.9149 52.5961 55.5909 51.7926C56.2685 50.9893 56.9054 50.1527 57.4993 49.2857C58.0923 48.419 58.6416 47.5232 59.1452 46.6017C59.648 45.6801 60.1045 44.7339 60.5128 43.7667C60.922 42.7992 61.2825 41.8118 61.593 40.8083C61.9031 39.8052 62.1629 38.7871 62.3713 37.7581C62.5806 36.7288 62.7383 35.6898 62.8438 34.6448C62.9266 33.7476 62.9708 32.8473 62.9764 31.9463L46.0858 15.0544C46.0779 15.0465 46.0661 15.0413 46.0583 15.0321C46.0399 15.015 46.0189 15.0006 45.9992 14.9835C45.7564 14.7663 45.4616 14.6153 45.1434 14.5452C45.1343 14.5439 45.1264 14.5399 45.1172 14.5373C44.9915 14.5114 44.8636 14.4982 44.7353 14.4979H36.9469L36.0911 13.6435C36.0728 13.6251 36.0478 13.6172 36.0294 13.5989C35.9273 13.5104 35.8155 13.4338 35.6961 13.3705C35.6226 13.3285 35.5583 13.2747 35.4782 13.2432C35.4611 13.2366 35.4428 13.234 35.4257 13.2274C35.247 13.1616 32.1153 10.2744 34.8679 13.125L31.9922 10.2744H29.1006C28.4654 10.2744 26.9784 13.4663 26.6477 13.965C26.5388 14.1304 26.4508 14.3115 26.3852 14.5032L26.3813 14.4992H18.2648C17.9673 14.4992 17.6739 14.5685 17.4078 14.7015C17.1417 14.8346 16.9103 15.0277 16.7318 15.2657V15.2684C16.5191 15.5563 16.4049 15.9052 16.4063 16.2632V49.4852C16.4063 49.6047 16.4194 49.7202 16.4417 49.8317C16.4548 49.8974 16.4824 49.9564 16.5034 50.0181C16.5191 50.0641 16.5296 50.1126 16.5493 50.1572C16.632 50.3436 16.7488 50.5103 16.8879 50.656C16.8984 50.6678 16.9037 50.6822 16.9142 50.6927L16.9654 50.7413L29.1034 62.8819Z" fill="black"/>
<g clip-path="url(#clip1_234_452)">
<path d="M34.3747 12.858L32.6767 9.46191H28.2312L26.5331 12.858H23.6617V14.5561H16.0205V50.2151H44.8873V14.5561H37.2461V12.858H34.3747ZM27.5825 14.5561L29.2806 11.16H31.6273L33.3253 14.5561H35.5481V19.6502H25.3598V14.5561H27.5825ZM37.2461 21.3482V19.6502H39.7932V45.1209H21.1147V19.6502H23.6617V21.3482H37.2461ZM43.1893 16.2541V48.517H17.7186V16.2541H23.6617V17.9522H19.4166V46.819H41.4912V17.9522H37.2461V16.2541H43.1893Z" fill="white"/>
<path d="M29.6046 13.707H31.3026V15.4051H29.6046V13.707ZM37.846 27.8917L36.6455 26.6911L27.9065 35.4301L25.1107 32.6343L23.9102 33.8348L27.9065 37.8312L37.846 27.8917Z" fill="#FFF3F3"/>
</g>
</g>
<defs>
<clipPath id="clip0_234_452">
<rect width="63" height="63" fill="white"/>
</clipPath>
<clipPath id="clip1_234_452">
<rect width="28.5469" height="41.5898" fill="white" transform="translate(16.3652 8.61328)"/>
</clipPath>
</defs>
</svg>
