<svg width="63" height="63" viewBox="0 0 63 63" fill="none" xmlns="http://www.w3.org/2000/svg">
<g clip-path="url(#clip0_234_436)">
<path d="M31.5 63.0001C48.897 63.0001 63 48.8971 63 31.5001C63 14.1031 48.897 0 31.5 0C14.103 0 0 14.1031 0 31.5001C0 48.8971 14.103 63.0001 31.5 63.0001Z" fill="#041D56"/>
<path fill-rule="evenodd" clip-rule="evenodd" d="M46.4813 59.1755C47.1751 58.8116 47.855 58.422 48.5196 58.0074C49.4032 57.4402 50.2578 56.8291 51.0803 56.1765C51.9033 55.5234 52.6931 54.8295 53.4468 54.0975C54.1996 53.3654 54.9154 52.5962 55.5914 51.7927C56.2689 50.9894 56.9058 50.1528 57.4998 49.2858C58.0928 48.4192 58.6421 47.5233 59.1456 46.6018C59.4676 45.9872 59.7692 45.3621 60.0499 44.7275L35.1479 19.8255C34.2383 18.917 33.1564 18.1994 31.9657 17.7148C30.775 17.2302 29.4994 16.9884 28.214 17.0036C25.596 17.0259 23.0922 18.0783 21.2446 19.9331C17.3858 23.7919 17.3307 30.0262 21.1396 33.8351L46.4813 59.1755Z" fill="black"/>
<path fill-rule="evenodd" clip-rule="evenodd" d="M28.273 17.0641C25.6551 17.0864 23.1513 18.1388 21.3037 19.9936C17.4449 23.8523 17.3885 30.0867 21.1987 33.8956C24.854 37.5509 30.7379 37.6376 34.6177 34.229L36.2347 35.8184C35.9314 36.3249 35.8073 36.9187 35.8823 37.5043C35.9573 38.09 36.227 38.6334 36.6481 39.0472L44.3656 46.7673C44.9471 47.3474 45.6742 47.6073 46.3475 47.5679C47.0037 47.5208 47.62 47.2351 48.08 46.7647C48.5315 46.3132 48.8412 45.7082 48.8806 45.0349C48.92 44.3603 48.6588 43.6331 48.0787 43.053L40.3599 35.334C40.1151 35.0827 39.8224 34.8832 39.4991 34.747C39.1759 34.6108 38.8285 34.5408 38.4777 34.5413C38.0157 34.5413 37.5708 34.6739 37.1757 34.901L35.5456 33.2998C38.9476 29.4187 38.8597 23.5401 35.207 19.8861C34.2974 18.9776 33.2155 18.2599 32.0248 17.7754C30.8341 17.2908 29.5585 17.049 28.273 17.0641ZM28.2809 18.3661C29.3932 18.3533 30.4968 18.5632 31.5269 18.9831C32.557 19.403 33.4927 20.0245 34.279 20.8113C37.5603 24.0926 37.534 29.4293 34.2279 32.7984C34.1849 32.8312 34.1461 32.869 34.1124 32.9112C34.1106 32.9112 34.1089 32.9112 34.1071 32.9112C30.7379 36.2161 25.4052 36.2397 22.1253 32.9598C18.827 29.6602 18.865 24.2803 22.2303 20.9137C23.833 19.3002 26.0068 18.3831 28.2809 18.3609V18.3661ZM38.479 35.8538C38.8334 35.8538 39.1747 35.9983 39.4214 36.2516H39.4241L47.1507 43.9782C47.4986 44.3261 47.5865 44.6424 47.5681 44.9548C47.5392 45.2893 47.3911 45.6023 47.1507 45.8368C46.9173 46.077 46.6051 46.2252 46.2714 46.2541C45.959 46.2725 45.6427 46.1846 45.2949 45.8368L37.5682 38.1101H37.5655C37.441 37.9906 37.3413 37.8475 37.2724 37.6892C37.2035 37.5309 37.1667 37.3605 37.1641 37.1879C37.1616 37.0153 37.1933 36.8438 37.2575 36.6836C37.3216 36.5233 37.417 36.3773 37.538 36.2542L37.5511 36.2385H37.555C37.8003 35.9946 38.1319 35.8573 38.4777 35.8565L38.479 35.8538Z" fill="white"/>
</g>
<defs>
<clipPath id="clip0_234_436">
<rect width="63" height="63" fill="white"/>
</clipPath>
</defs>
</svg>
