<svg width="63" height="63" viewBox="0 0 63 63" fill="none" xmlns="http://www.w3.org/2000/svg">
<path d="M31.5 63.0001C48.897 63.0001 63 48.8971 63 31.5001C63 14.1031 48.897 0 31.5 0C14.103 0 0 14.1031 0 31.5001C0 48.8971 14.103 63.0001 31.5 63.0001Z" fill="#041D56"/>
<path d="M32.8341 62.9509C33.1321 62.9446 33.4301 62.9341 33.7279 62.9194C34.7761 62.8452 35.82 62.7186 36.8556 62.54C37.8902 62.3617 38.9152 62.1317 39.9268 61.851C40.9389 61.5703 41.9364 61.2391 42.9154 60.8587C43.8943 60.4782 44.8537 60.0489 45.7898 59.5725C46.7253 59.0959 47.6364 58.5729 48.5198 58.0054C49.4033 57.4385 50.2579 56.8279 51.0804 56.1757C51.9034 55.5226 52.6932 54.8288 53.4469 54.0967C54.1997 53.3647 54.9155 52.5955 55.5915 51.792C56.269 50.9887 56.906 50.152 57.4999 49.2851C58.0929 48.4184 58.6422 47.5226 59.1458 46.601C59.6486 45.6794 60.105 44.7332 60.5134 43.766C60.9225 42.7985 61.2831 41.8112 61.5936 40.8077C61.8687 39.9034 62.103 38.9872 62.2958 38.0619L45.1243 20.8944L45.1112 20.8787C45.1033 20.8655 45.0941 20.859 45.0849 20.8485L38.5224 14.286C38.4623 14.2249 38.3905 14.1764 38.3115 14.1433C38.2324 14.1101 38.1475 14.0931 38.0618 14.093H37.6089L36.4277 13.5273C36.3281 13.4789 36.218 13.4563 36.1074 13.4617V13.4683H36.0943L27.7862 14.0904H18.3756C18.2893 14.0901 18.2038 14.1068 18.124 14.1396C18.0442 14.1725 17.9718 14.2208 17.9107 14.2818C17.8497 14.3428 17.8014 14.4153 17.7686 14.4951C17.7357 14.5749 17.719 14.6604 17.7193 14.7467V15.5368L16.3149 15.7363C16.1429 15.761 15.9876 15.8529 15.8833 15.992C15.779 16.131 15.7341 16.3057 15.7584 16.4778V16.4831L17.7193 30.1436V47.5644C17.7193 47.7385 17.7882 47.9056 17.9109 48.029L32.8341 62.9509Z" fill="black"/>
<path d="M36.1073 13.4737V13.4777H36.0941L27.786 14.1011H27.7374L27.7204 14.1037H18.3754C18.2013 14.1037 18.0344 14.1729 17.9113 14.2959C17.7883 14.419 17.7191 14.5859 17.7191 14.76V15.5501L16.3148 15.7496C16.143 15.7743 15.9879 15.8661 15.8837 16.0048C15.7794 16.1435 15.7343 16.318 15.7583 16.4898L17.7191 30.1556V47.5725C17.7191 47.7465 17.7883 47.9134 17.9113 48.0365C18.0344 48.1596 18.2013 48.2287 18.3754 48.2287H20.3139L20.4189 48.9637C20.4437 49.1355 20.5354 49.2905 20.6742 49.3948C20.8129 49.4991 20.9873 49.5442 21.1592 49.5202L27.5012 48.6107L28.0551 49.2407C28.1134 49.3076 28.1848 49.3619 28.2648 49.4005C28.3448 49.439 28.4318 49.4609 28.5205 49.4648C28.6093 49.4688 28.6979 49.4546 28.781 49.4233C28.8641 49.392 28.9399 49.3442 29.004 49.2827L30.0881 48.2392L30.1603 48.2287H44.6254C44.7994 48.2287 44.9663 48.1596 45.0894 48.0365C45.2125 47.9134 45.2816 47.7465 45.2816 47.5725V46.0578L47.1428 45.7914C47.3148 45.7667 47.47 45.6747 47.5744 45.5357C47.6787 45.3967 47.7236 45.2219 47.6993 45.0498L45.9969 33.1809C46.1229 33.089 46.2503 32.9972 46.3684 32.879L46.7319 32.5142C47.1729 32.0745 47.5326 31.577 47.7688 31.0586L49.416 27.4308C49.5683 27.0962 49.6391 26.6105 49.2808 26.2522C49.1227 26.0923 48.9084 26.0005 48.6836 25.9963C48.4824 25.9894 48.2825 26.0313 48.1009 26.1183L45.2816 27.3993V21.3684C45.2822 21.3531 45.2822 21.3378 45.2816 21.3225V21.3041C45.2816 21.2897 45.2816 21.2739 45.279 21.2582L45.2764 21.2385C45.2715 21.202 45.2636 21.166 45.2528 21.1308L45.2488 21.1125C45.2432 21.0978 45.2371 21.0834 45.2304 21.0692L45.2278 21.0665L45.2226 21.0508C45.2161 21.037 45.2091 21.0234 45.2016 21.0101L45.1924 20.9917L45.1898 20.9865C45.1715 20.9569 45.1508 20.9288 45.1281 20.9025L45.1149 20.8867C45.1065 20.8768 45.0977 20.8672 45.0887 20.8578L38.5262 14.2953C38.4653 14.2345 38.3931 14.1863 38.3136 14.1534C38.2341 14.1206 38.1489 14.1037 38.0629 14.1037H37.6088L36.4275 13.5367C36.3278 13.4891 36.2176 13.4674 36.1073 13.4737ZM19.0316 15.4162H37.4066V21.3225C37.4066 21.4965 37.4758 21.6634 37.5988 21.7865C37.7219 21.9096 37.8888 21.9787 38.0629 21.9787H43.9691V28.0425C43.6704 28.2206 43.3942 28.4339 43.1462 28.6777L42.0621 29.7592C42.0358 29.7855 42.0227 29.8222 41.9978 29.8511H20.3441V31.1662H40.7089L37.8883 33.7912H20.3441V35.1037H36.4761L33.6568 37.7287H20.3441V39.0412H32.2459L29.4293 41.6636H20.3441V42.9787H28.017L25.4813 45.3373C25.3566 45.4536 25.2821 45.6138 25.2736 45.7841C25.265 45.9543 25.323 46.1212 25.4353 46.2495L26.0194 46.9162H19.0316V15.4162ZM38.7191 16.3442L43.0412 20.6662H38.7191V16.3442ZM17.7191 16.8665V20.9287L17.1469 16.9505L17.7191 16.8665ZM20.3441 21.9787V23.2912H32.1566V21.9787H20.3441ZM20.3441 25.9162V27.2287H42.0004V25.9162H20.3441ZM47.8659 27.6671L46.5705 30.5152C46.4156 30.8565 46.1453 31.2463 45.804 31.5862L45.4404 31.9511C45.3039 32.0909 45.1411 32.2024 44.9614 32.2792L43.179 30.4968L44.0741 29.6043C44.3073 29.3661 44.5794 29.1695 44.8787 29.0229L47.8659 27.6671ZM42.2799 31.4996L43.8943 33.114L30.7719 45.7533L28.9856 43.8712L42.2799 31.4996ZM43.9691 34.8648V46.9162H31.4597L35.5455 42.9787H42.6566V41.6636H36.9118L39.6339 39.0412H42.0004V37.7287H40.995L43.9691 34.8648ZM45.2816 37.4308L46.3067 44.5865L45.2816 44.7348V37.4308ZM28.0249 44.765L29.8296 46.6629L28.5879 47.8573L26.8423 45.8649L28.0236 44.765H28.0249Z" fill="white"/>
</svg>
