<svg width="63" height="63" viewBox="0 0 63 63" fill="none" xmlns="http://www.w3.org/2000/svg">
<g clip-path="url(#clip0_234_485)">
<path d="M31.5 63.0001C48.897 63.0001 63 48.8971 63 31.5001C63 14.1031 48.897 0 31.5 0C14.103 0 0 14.1031 0 31.5001C0 48.8971 14.103 63.0001 31.5 63.0001Z" fill="#041D56"/>
<path d="M40.3336 61.7151C41.2061 61.4671 42.0675 61.1816 42.9153 60.8593C43.8943 60.4787 44.8536 60.0495 45.7897 59.5731C46.7252 59.0965 47.6364 58.5735 48.5197 58.0059C49.4032 57.4391 50.2578 56.8285 51.0804 56.1763C51.9034 55.5232 52.6932 54.8293 53.4468 54.0973C54.1996 53.3653 54.9154 52.5961 55.5914 51.7926C56.269 50.9893 56.9059 50.1526 57.4998 49.2857C58.0928 48.419 58.6421 47.5232 59.1457 46.6016C59.6485 45.68 60.105 44.7338 60.5133 43.7666C60.9225 42.7991 61.283 41.8118 61.5935 40.8082C61.6108 40.7427 61.6278 40.6771 61.6447 40.6114L43.9259 22.8926C43.7438 22.7092 43.5273 22.5635 43.2888 22.464C43.0503 22.3644 42.7944 22.313 42.536 22.3125C42.0147 22.3153 41.5155 22.5236 41.1469 22.8922C40.7783 23.2608 40.57 23.76 40.5672 24.2812V30.8385L35.1099 25.3811C35.0836 25.3536 35.0442 25.3365 35.0101 25.3155C34.9839 25.2984 34.9642 25.2787 34.9353 25.2656C34.8474 25.2254 34.7523 25.2035 34.6557 25.2013L17.6589 23.8888H17.5932C17.5049 23.8919 17.418 23.9106 17.3373 23.9466L17.2966 23.9676C17.2526 23.9919 17.212 24.0219 17.1759 24.0568C17.095 24.1264 17.0331 24.2154 16.996 24.3154C16.9921 24.3285 16.9921 24.3429 16.9882 24.3574C16.9624 24.455 16.9579 24.5571 16.975 24.6566C16.979 24.6737 16.9777 24.6894 16.9816 24.7052C17.0052 24.8115 17.0551 24.9086 17.1299 24.99C17.1365 24.9979 17.1352 25.0084 17.143 25.0162L18.2547 26.1279V31.1062C18.2547 31.2874 18.3282 31.4514 18.4477 31.5709L20.8797 34.0029V42.2625L40.3336 61.7151Z" fill="black"/>
<path d="M42.5369 22.3135C41.458 22.3135 40.5682 23.202 40.5682 24.2822V30.8447C40.5682 31.6926 41.1194 32.4158 41.8807 32.6901V33.0748H34.6724C33.7852 33.0617 33.7852 34.4004 34.6724 34.3873H35.3182V42.2623H36.6307V34.3873H41.8807V42.2623H43.1932V34.3873H43.9597C44.8469 34.4004 44.8469 33.0617 43.9597 33.0748H43.1932V32.6901C43.9531 32.4158 44.5057 31.6926 44.5057 30.8447V24.2822C44.5057 23.202 43.6158 22.3135 42.5369 22.3135ZM42.5369 23.626C42.9123 23.626 43.1932 23.9069 43.1932 24.2822V30.8447C43.1932 31.2188 42.9123 31.501 42.5369 31.501C42.4502 31.5031 42.3638 31.4877 42.2833 31.4555C42.2027 31.4233 42.1294 31.3751 42.0681 31.3137C42.0067 31.2523 41.9584 31.1791 41.9262 31.0985C41.894 31.0179 41.8785 30.9315 41.8807 30.8447V24.2822C41.8807 23.9069 42.1615 23.626 42.5369 23.626ZM17.5942 23.8873C16.7686 23.9122 16.7358 25.1262 17.5587 25.1971L18.2544 25.2496V31.106C18.2544 31.2801 18.3235 31.447 18.4466 31.57C18.5696 31.6931 18.7366 31.7623 18.9106 31.7623H20.8794V42.2623H22.1919V31.7623H30.0669V42.2623H31.3794V31.7623H33.3481C33.5222 31.7623 33.6891 31.6931 33.8121 31.57C33.9352 31.447 34.0044 31.2801 34.0044 31.106V26.4663L34.5556 26.5096C35.4665 26.6211 35.5728 25.2286 34.6567 25.2011L17.6585 23.8886L17.5942 23.8873ZM19.5682 25.3533L32.6932 26.3652V30.4498H19.5682V25.3533Z" fill="white"/>
</g>
<defs>
<clipPath id="clip0_234_485">
<rect width="63" height="63" fill="white"/>
</clipPath>
</defs>
</svg>
