<svg width="63" height="63" viewBox="0 0 63 63" fill="none" xmlns="http://www.w3.org/2000/svg">
<g clip-path="url(#clip0_234_470)">
<mask id="mask0_234_470" style="mask-type:luminance" maskUnits="userSpaceOnUse" x="0" y="0" width="63" height="63">
<path d="M63 31.5C63 14.103 48.897 0 31.5 0C14.103 0 0 14.103 0 31.5C0 48.897 14.103 63 31.5 63C48.897 63 63 48.897 63 31.5Z" fill="white"/>
</mask>
<g mask="url(#mask0_234_470)">
<path d="M63 31.5C63 14.103 48.897 0 31.5 0C14.103 0 0 14.103 0 31.5C0 48.897 14.103 63 31.5 63C48.897 63 63 48.897 63 31.5Z" fill="white"/>
<path d="M31.5 63.0001C48.897 63.0001 63 48.8971 63 31.5001C63 14.1031 48.897 0 31.5 0C14.103 0 0 14.1031 0 31.5001C0 48.8971 14.103 63.0001 31.5 63.0001Z" fill="#041D56"/>
<path d="M34.8223 62.7539L18.9492 47.8037L22.7021 44.0508L41.7744 61.5234L43.7432 62.7539L45.8965 61.5234L20.5488 38.6982L38.2061 37.0986L43.7432 18.5186L49.0957 15.873L67.4912 40.2979L66.4453 41.8975L65.5225 44.0508L54.6328 52.418L51.249 67.0605L34.8223 62.7539Z" fill="black"/>
<path d="M13.9819 22.2314C14.3043 21.6726 14.7661 21.207 15.322 20.8799C15.8781 20.5529 16.5093 20.3756 17.1543 20.3651H41.041L42.1233 16.1477C42.2327 15.7405 42.4767 15.3824 42.8156 15.1317C43.1545 14.8809 43.5683 14.7523 43.9896 14.7667H47.7219C48.2167 14.7667 48.6915 14.9633 49.0414 15.3133C49.3914 15.6632 49.588 16.1379 49.588 16.6328C49.588 17.1277 49.3914 17.6025 49.0414 17.9524C48.6915 18.3023 48.2167 18.499 47.7219 18.499H45.4078L40.2572 37.6457C40.1478 38.0528 39.9039 38.4109 39.5651 38.6617C39.2262 38.9124 38.8124 39.041 38.3911 39.0266H21.5958C21.2512 39.0257 20.9135 38.9292 20.6204 38.7479C20.3272 38.5668 20.09 38.308 19.9349 38.0003L13.814 25.7584C13.5487 25.2022 13.4251 24.5892 13.4544 23.9737C13.4837 23.3582 13.6649 22.7597 13.9819 22.2314ZM22.7528 35.2944H36.9728L40.0147 24.0975H17.1543L22.7528 35.2944Z" fill="white"/>
<path d="M39.3237 48.3572C37.7778 48.3572 36.5244 47.1039 36.5244 45.558C36.5244 44.012 37.7778 42.7588 39.3237 42.7588C40.8697 42.7588 42.1229 44.012 42.1229 45.558C42.1229 47.1039 40.8697 48.3572 39.3237 48.3572Z" fill="white"/>
<path d="M20.6626 48.3572C19.1166 48.3572 17.8633 47.1039 17.8633 45.558C17.8633 44.012 19.1166 42.7588 20.6626 42.7588C22.2086 42.7588 23.4618 44.012 23.4618 45.558C23.4618 47.1039 22.2086 48.3572 20.6626 48.3572Z" fill="white"/>
</g>
</g>
<defs>
<clipPath id="clip0_234_470">
<rect width="63" height="63" fill="white"/>
</clipPath>
</defs>
</svg>
